<svg xmlns="http://www.w3.org/2000/svg" version="1.0" width="1000" height="1000" preserveAspectRatio="xMidYMid meet" style=""><rect id="backgroundrect" width="100%" height="100%" x="0" y="0" fill="none" stroke="none"/>


<g class="currentLayer" style=""><title>Layer 1</title><g id="layer101" fill="#054ce4" stroke="none" class="selected" fill-opacity="1">
 <path d="M390 907 c-187 -54 -310 -216 -310 -407 0 -312 320 -511 608 -378 61 28 162 130 190 191 100 214 15 460 -194 563 -63 32 -84 37 -161 40 -54 2 -105 -1 -133 -9z m246 -111 c94 -43 194 -172 167 -214 -18 -29 -41 -25 -62 10 -47 78 -73 107 -123 132 -72 36 -163 36 -235 1 -75 -38 -79 -47 -49 -91 14 -21 23 -40 21 -44 -3 -4 -33 -13 -67 -19 -35 -7 -71 -14 -81 -17 -50 -15 -8 105 62 175 99 99 241 125 367 67z m180 -361 c9 -23 -41 -120 -86 -165 -129 -129 -336 -127 -463 3 -53 55 -85 121 -70 145 20 32 45 19 82 -43 50 -82 109 -118 203 -123 76 -5 132 11 182 51 l29 24 -26 38 c-15 22 -23 42 -19 46 5 6 117 33 155 38 4 1 10 -6 13 -14z" id="svg_1" fill="#054ce4" fill-opacity="1"/>
 </g></g></svg>